# xmcd
#
# Track frame offsets:
#	182
#	11792
#	28842
#	45042
#	55985
#	65465
#	77790
#	87545
#	96967
#	107197
#	118542
#	128675
#	139890
#	153157
#	163705
#	178115
#	191832
#	201862
#
# Disc length: 2881 seconds
#
# Revision: 5
# Processed by: cddbd v1.5.2PL0 Copyright (c) Steve Scherf et al.
# Submitted via: EasyCDDAExtractor 10.0.6.1
#
DISCID=f80b3f12
DTITLE=Bare, Bobby - Music City USA
DYEAR=1991
DGENRE=Country
TTITLE0=1979 Music City U.S.A.
TTITLE1=1974 Sylvia's Mother
TTITLE2=1971 Me And Bobby McGee
TTITLE3=1987 The Puppet And the Parakeet
TTITLE4=1984 That's All Right, Mama
TTITLE5=1972 Roses Are Red (My Love)
TTITLE6=1970 Woman You've Been a Friend to Me
TTITLE7=1981 A Fallen Star
TTITLE8=1979 Take Some And Give Some (And Leave Some Behind)
TTITLE9=1972 Love Forever
TTITLE10=1971 West Virginia Woman
TTITLE11=1978 Footpriints In the Sands of Time
TTITLE12=1979 High And Dry
TTITLE13=1970 The World Is Weighing Heavy On My Mind
TTITLE14=1971 New York City Snow
TTITLE15=1971 Christian Soldier
TTITLE16=1970 Help Me Make It Through the Night
TTITLE17=1970 Leaving On a Jet Plane
EXTD=YEAR: 1991
EXTT0=
EXTT1=
EXTT2=
EXTT3=
EXTT4=
EXTT5=
EXTT6=
EXTT7=
EXTT8=
EXTT9=
EXTT10=
EXTT11=
EXTT12=
EXTT13=
EXTT14=
EXTT15=
EXTT16=
EXTT17=
PLAYORDER=
